<svg width="28" height="28" viewBox="0 0 28 28" fill="none" xmlns="http://www.w3.org/2000/svg">
<g id="call 1" clip-path="url(#clip0_192_401)">
<g id="Group">
<g id="Group_2">
<g id="Group_3">
<path id="Vector" d="M27.2653 21.6005L21.598 17.821C20.8788 17.3453 19.9147 17.5018 19.383 18.1808L17.7322 20.3033C17.52 20.5831 17.1344 20.6642 16.8275 20.4937L16.5134 20.3206C15.4724 19.7532 14.1772 19.0468 11.5675 16.4362C8.95783 13.8256 8.25001 12.5293 7.6826 11.4903L7.51042 11.1762C7.33757 10.8694 7.41719 10.4821 7.69704 10.2682L9.81816 8.6179C10.4968 8.08615 10.6536 7.12237 10.1784 6.40295L6.39895 0.735652C5.91192 0.00305762 4.9348 -0.216863 4.18082 0.236375L1.81096 1.65995C1.06634 2.09772 0.520038 2.80669 0.286612 3.63831C-0.566769 6.7477 0.0752209 12.114 7.98033 20.0201C14.2687 26.3079 18.9501 27.9989 22.1677 27.9989C22.9082 28.0021 23.6459 27.9057 24.3607 27.7124C25.1925 27.4793 25.9016 26.9329 26.3391 26.1881L27.7641 23.8196C28.218 23.0655 27.9982 22.0878 27.2653 21.6005ZM26.9601 23.3409L25.5384 25.7107C25.2242 26.2483 24.7142 26.6436 24.1152 26.8138C21.2447 27.6019 16.2298 26.9491 8.64053 19.3599C1.0513 11.7707 0.398595 6.75613 1.18669 3.88518C1.35707 3.28546 1.75284 2.77481 2.2911 2.46019L4.66096 1.03847C4.98811 0.841621 5.4122 0.937036 5.62354 1.25494L7.67659 4.33727L9.39975 6.92175C9.60611 7.2338 9.53831 7.65205 9.24392 7.88296L7.1223 9.53329C6.47665 10.027 6.29227 10.9203 6.68979 11.6293L6.85825 11.9354C7.45459 13.0291 8.19598 14.3896 10.9027 17.0959C13.6095 19.8022 14.9696 20.5436 16.0628 21.1399L16.3694 21.3088C17.0783 21.7063 17.9716 21.522 18.4653 20.8763L20.1157 18.7547C20.3466 18.4605 20.7647 18.3927 21.0769 18.5989L26.7437 22.3783C27.0618 22.5895 27.1572 23.0138 26.9601 23.3409Z" fill="#B0B5B9"/>
<path id="Vector_2" d="M15.8658 4.66851C20.2445 4.67338 23.793 8.2219 23.7979 12.6007C23.7979 12.8584 24.0068 13.0673 24.2645 13.0673C24.5222 13.0673 24.7311 12.8584 24.7311 12.6007C24.7257 7.70671 20.7597 3.74071 15.8658 3.73535C15.608 3.73535 15.3992 3.94423 15.3992 4.20193C15.3992 4.45963 15.608 4.66851 15.8658 4.66851Z" fill="#B0B5B9"/>
<path id="Vector_3" d="M15.8658 7.46831C18.699 7.47165 20.995 9.76764 20.9983 12.6009C20.9983 12.8586 21.2073 13.0675 21.4649 13.0675C21.7226 13.0675 21.9315 12.8586 21.9315 12.6009C21.9276 9.25245 19.2142 6.53898 15.8658 6.53516C15.608 6.53516 15.3992 6.74403 15.3992 7.00174C15.3992 7.25944 15.608 7.46831 15.8658 7.46831Z" fill="#B0B5B9"/>
<path id="Vector_4" d="M15.8658 10.2681C17.1536 10.2697 18.1972 11.3133 18.1988 12.6011C18.1988 12.8588 18.4077 13.0677 18.6653 13.0677C18.923 13.0677 19.1319 12.8588 19.1319 12.6011C19.1298 10.7981 17.6687 9.33698 15.8658 9.33496C15.608 9.33496 15.3992 9.54384 15.3992 9.80154C15.3992 10.0592 15.608 10.2681 15.8658 10.2681Z" fill="#B0B5B9"/>
</g>
</g>
</g>
</g>
<defs>
<clipPath id="clip0_192_401">
<rect width="28" height="28" fill="white"/>
</clipPath>
</defs>
</svg>
