<svg width="28" height="28" viewBox="0 0 28 28" fill="none" xmlns="http://www.w3.org/2000/svg">
<g id="home 1">
<g id="9-Home">
<path id="Vector" d="M19.0922 26.2502H8.90717C7.75538 26.293 6.63322 25.8795 5.78454 25.0996C4.93585 24.3198 4.4292 23.2365 4.37467 22.0852V16.6252C4.37467 16.3931 4.46686 16.1706 4.63096 16.0065C4.79505 15.8424 5.01761 15.7502 5.24967 15.7502C5.48174 15.7502 5.7043 15.8424 5.86839 16.0065C6.03249 16.1706 6.12467 16.3931 6.12467 16.6252V22.0852C6.17845 22.7725 6.50043 23.411 7.02106 23.8629C7.54169 24.3147 8.21917 24.5437 8.90717 24.5002H19.0922C19.7802 24.5437 20.4577 24.3147 20.9783 23.8629C21.4989 23.411 21.8209 22.7725 21.8747 22.0852V16.6252C21.8747 16.3931 21.9669 16.1706 22.131 16.0065C22.295 15.8424 22.5176 15.7502 22.7497 15.7502C22.9817 15.7502 23.2043 15.8424 23.3684 16.0065C23.5325 16.1706 23.6247 16.3931 23.6247 16.6252V22.0852C23.5701 23.2365 23.0635 24.3198 22.2148 25.0996C21.3661 25.8795 20.244 26.293 19.0922 26.2502ZM25.9959 14.6214C26.0779 14.5401 26.143 14.4433 26.1875 14.3367C26.2319 14.2301 26.2547 14.1157 26.2547 14.0002C26.2547 13.8847 26.2319 13.7703 26.1875 13.6637C26.143 13.5571 26.0779 13.4603 25.9959 13.3789L14.6209 2.00394C14.5396 1.92193 14.4428 1.85683 14.3362 1.81241C14.2296 1.76799 14.1152 1.74512 13.9997 1.74512C13.8842 1.74512 13.7698 1.76799 13.6632 1.81241C13.5565 1.85683 13.4598 1.92193 13.3784 2.00394L2.00342 13.3789C1.83866 13.5437 1.74609 13.7672 1.74609 14.0002C1.74609 14.2332 1.83866 14.4567 2.00342 14.6214C2.16819 14.7862 2.39166 14.8788 2.62467 14.8788C2.85769 14.8788 3.08116 14.7862 3.24592 14.6214L13.9997 3.85894L24.7534 14.6214C24.8348 14.7035 24.9315 14.7685 25.0382 14.813C25.1448 14.8574 25.2592 14.8803 25.3747 14.8803C25.4902 14.8803 25.6046 14.8574 25.7112 14.813C25.8178 14.7685 25.9146 14.7035 25.9959 14.6214Z" fill="#B0B5B9"/>
</g>
</g>
</svg>
